<svg width="80" height="40" viewBox="0 0 80 40" fill="none" xmlns="http://www.w3.org/2000/svg">
<g clip-path="url(#clip0_426_64)">
<path d="M20 40C31.0457 40 40 31.0457 40 20C40 8.9543 31.0457 0 20 0C8.9543 0 0 8.9543 0 20C0 31.0457 8.9543 40 20 40Z" fill="#1C2C7C" fill-opacity="0.2"/>
<path d="M20 39.5C30.7696 39.5 39.5 30.7696 39.5 20C39.5 9.23045 30.7696 0.5 20 0.5C9.23045 0.5 0.5 9.23045 0.5 20C0.5 30.7696 9.23045 39.5 20 39.5Z" stroke="white"/>
<path d="M40 40C51.0457 40 60 31.0457 60 20C60 8.9543 51.0457 0 40 0C28.9543 0 20 8.9543 20 20C20 31.0457 28.9543 40 40 40Z" fill="#2A41B1"/>
<path d="M40 39.5C50.7696 39.5 59.5 30.7696 59.5 20C59.5 9.23045 50.7696 0.5 40 0.5C29.2304 0.5 20.5 9.23045 20.5 20C20.5 30.7696 29.2304 39.5 40 39.5Z" stroke="white"/>
<path d="M60 40C71.0457 40 80 31.0457 80 20C80 8.9543 71.0457 0 60 0C48.9543 0 40 8.9543 40 20C40 31.0457 48.9543 40 60 40Z" fill="#1C2C7C"/>
<path d="M60 39.5C70.7696 39.5 79.5 30.7696 79.5 20C79.5 9.23045 70.7696 0.5 60 0.5C49.2304 0.5 40.5 9.23045 40.5 20C40.5 30.7696 49.2304 39.5 60 39.5Z" stroke="white"/>
<mask id="mask0_426_64" style="mask-type:luminance" maskUnits="userSpaceOnUse" x="48" y="8" width="24" height="24">
<path d="M71.5 8.5H48.5V31.5H71.5V8.5Z" fill="white"/>
</mask>
<g mask="url(#mask0_426_64)">
<path d="M64.06 12.1499C62.99 11.7499 61.78 12.1499 60.75 13.1199C59.78 14.0199 58.32 14.0199 57.35 13.1199C56.31 12.1499 55.1 11.7499 54.04 12.1499C52.15 12.8599 51.44 15.8299 52.46 18.7899C52.8 19.7699 53.28 20.6299 53.84 21.3099C54.04 21.5499 54.17 21.8299 54.21 22.1299L54.7 25.5899C54.83 26.4599 55.57 27.1099 56.44 27.1099C56.88 27.1099 57.28 26.9499 57.59 26.6799C57.9 26.4099 58.12 26.0299 58.18 25.5899L58.62 22.4799C58.65 22.3299 58.77 22.2099 58.92 22.1799H58.93C59.13 22.1499 59.31 22.2899 59.34 22.4899L59.78 25.5899C59.91 26.4599 60.65 27.1099 61.52 27.1099C61.96 27.1099 62.37 26.9499 62.67 26.6799C62.69 26.6599 62.7 26.6499 62.72 26.6399C62.34 26.0999 62.13 25.4499 62.13 24.7699V22.3799L64.75 20.6299C65.1 20.0899 65.4 19.4699 65.63 18.7899C66.65 15.8299 65.94 12.8599 64.06 12.1499ZM57.2 15.1099C57.06 15.2499 56.84 15.2499 56.7 15.1099L56.1 14.5199C55.9 14.3099 55.63 14.1999 55.34 14.1999C54.74 14.1999 54.26 14.6899 54.26 15.2899V15.8799C54.26 16.0799 54.1 16.2399 53.9 16.2399C53.71 16.2399 53.55 16.0799 53.55 15.8799V15.2899C53.55 14.2899 54.35 13.4899 55.34 13.4899C55.82 13.4899 56.27 13.6699 56.61 14.0099L57.2 14.6099C57.34 14.7499 57.34 14.9799 57.2 15.1099Z" fill="white"/>
<path d="M65.33 20.8899L62.66 22.6699V24.7699C62.66 25.6799 63.11 26.5199 63.87 27.0199L65.33 27.9999L66.79 27.0199C67.54 26.5199 68 25.6799 68 24.7699V22.6699L65.33 20.8899ZM66.85 23.7799L65.43 25.5499C65.37 25.6299 65.27 25.6799 65.17 25.6899H65.15C65.06 25.6899 64.97 25.6499 64.9 25.5799L64.01 24.6899C63.87 24.5499 63.87 24.3299 64.01 24.1899C64.15 24.0499 64.37 24.0499 64.51 24.1899L65.12 24.7999L66.3 23.3299C66.42 23.1799 66.64 23.1499 66.8 23.2799C66.95 23.3999 66.97 23.6199 66.85 23.7799Z" fill="white"/>
</g>
</g>
<defs>
<clipPath id="clip0_426_64">
<rect width="80" height="40" fill="white"/>
</clipPath>
</defs>
</svg>
