<svg width="80" height="40" viewBox="0 0 80 40" fill="none" xmlns="http://www.w3.org/2000/svg">
<g clip-path="url(#clip0_426_78)">
<path d="M20 40C31.0457 40 40 31.0457 40 20C40 8.9543 31.0457 0 20 0C8.9543 0 0 8.9543 0 20C0 31.0457 8.9543 40 20 40Z" fill="#1C2C7C" fill-opacity="0.2"/>
<path d="M20 39.5C30.7696 39.5 39.5 30.7696 39.5 20C39.5 9.23045 30.7696 0.5 20 0.5C9.23045 0.5 0.5 9.23045 0.5 20C0.5 30.7696 9.23045 39.5 20 39.5Z" stroke="white"/>
<path d="M40 40C51.0457 40 60 31.0457 60 20C60 8.9543 51.0457 0 40 0C28.9543 0 20 8.9543 20 20C20 31.0457 28.9543 40 40 40Z" fill="#2A41B1"/>
<path d="M40 39.5C50.7696 39.5 59.5 30.7696 59.5 20C59.5 9.23045 50.7696 0.5 40 0.5C29.2304 0.5 20.5 9.23045 20.5 20C20.5 30.7696 29.2304 39.5 40 39.5Z" stroke="white"/>
<path d="M60 40C71.0457 40 80 31.0457 80 20C80 8.9543 71.0457 0 60 0C48.9543 0 40 8.9543 40 20C40 31.0457 48.9543 40 60 40Z" fill="#1C2C7C"/>
<path d="M60 39.5C70.7696 39.5 79.5 30.7696 79.5 20C79.5 9.23045 70.7696 0.5 60 0.5C49.2304 0.5 40.5 9.23045 40.5 20C40.5 30.7696 49.2304 39.5 60 39.5Z" stroke="white"/>
<mask id="mask0_426_78" style="mask-type:luminance" maskUnits="userSpaceOnUse" x="48" y="8" width="24" height="24">
<path d="M71.5 8.5H48.5V31.5H71.5V8.5Z" fill="white"/>
</mask>
<g mask="url(#mask0_426_78)">
<path fill-rule="evenodd" clip-rule="evenodd" d="M70 19.96C70 21.98 68.37 23.74 66.03 24.51C65.93 24.55 65.87 24.66 65.89 24.78L66.4 26.83H66.41C66.42 26.88 66.4 26.94 66.36 26.97C66.32 27 66.26 27 66.22 26.97L62.92 24.92C61.13 24.85 59.53 24.26 58.39 23.35C59.63 23.14 60.81 22.63 61.84 21.85C63.02 20.94 63.89 19.59 63.89 17.99C63.87 16.87 63.47 15.8 62.75 14.99C62.93 14.98 63.11 14.98 63.3 14.98C67 14.98 70 17.21 70 19.96ZM56.69 13C52.99 13 50 15.24 50 17.99C50 20.01 51.62 21.76 53.96 22.54C54.06 22.58 54.12 22.69 54.1 22.81L53.59 24.86H53.58C53.57 24.91 53.59 24.97 53.63 25C53.67 25.03 53.73 25.03 53.77 25L57.07 22.96C60.59 22.81 63.4 20.64 63.4 17.98C63.4 15.23 60.4 13 56.7 13H56.69ZM60.1 16.62C59.77 16.62 59.48 16.83 59.35 17.16C59.23 17.49 59.3 17.86 59.53 18.11C59.76 18.36 60.11 18.43 60.41 18.3C60.72 18.16 60.91 17.85 60.91 17.49C60.91 17.01 60.55 16.62 60.1 16.62ZM56.69 16.62C57.02 16.62 57.32 16.83 57.44 17.16C57.57 17.49 57.5 17.86 57.27 18.11C57.04 18.36 56.69 18.43 56.38 18.3C56.08 18.16 55.88 17.85 55.88 17.49C55.88 17.01 56.24 16.62 56.69 16.62ZM53.28 16.62C53.61 16.62 53.91 16.83 54.03 17.16C54.16 17.49 54.09 17.86 53.86 18.11C53.63 18.36 53.28 18.43 52.97 18.3C52.67 18.16 52.47 17.85 52.47 17.49C52.47 17.26 52.56 17.04 52.71 16.88C52.86 16.71 53.07 16.62 53.28 16.62Z" fill="white"/>
</g>
</g>
<defs>
<clipPath id="clip0_426_78">
<rect width="80" height="40" fill="white"/>
</clipPath>
</defs>
</svg>
