<svg width="88" height="48" viewBox="0 0 88 48" fill="none" xmlns="http://www.w3.org/2000/svg">
<g clip-path="url(#clip0_473_93)">
<path d="M24 48C37.2548 48 48 37.2548 48 24C48 10.7452 37.2548 0 24 0C10.7452 0 0 10.7452 0 24C0 37.2548 10.7452 48 24 48Z" fill="#1C2C7C" fill-opacity="0.2"/>
<path d="M24 47.5C36.9787 47.5 47.5 36.9787 47.5 24C47.5 11.0213 36.9787 0.5 24 0.5C11.0213 0.5 0.5 11.0213 0.5 24C0.5 36.9787 11.0213 47.5 24 47.5Z" stroke="white"/>
<path d="M44 48C57.2548 48 68 37.2548 68 24C68 10.7452 57.2548 0 44 0C30.7452 0 20 10.7452 20 24C20 37.2548 30.7452 48 44 48Z" fill="#2A41B1"/>
<path d="M44 47.5C56.9787 47.5 67.5 36.9787 67.5 24C67.5 11.0213 56.9787 0.5 44 0.5C31.0213 0.5 20.5 11.0213 20.5 24C20.5 36.9787 31.0213 47.5 44 47.5Z" stroke="white"/>
<path d="M64 48C77.2548 48 88 37.2548 88 24C88 10.7452 77.2548 0 64 0C50.7452 0 40 10.7452 40 24C40 37.2548 50.7452 48 64 48Z" fill="#5AC2D0"/>
<path d="M64 47.5C76.9787 47.5 87.5 36.9787 87.5 24C87.5 11.0213 76.9787 0.5 64 0.5C51.0213 0.5 40.5 11.0213 40.5 24C40.5 36.9787 51.0213 47.5 64 47.5Z" fill="#1C2C7C" stroke="white"/>
<mask id="mask0_473_93" style="mask-type:luminance" maskUnits="userSpaceOnUse" x="48" y="8" width="32" height="32">
<path d="M79.5 8.5H48.5V39.5H79.5V8.5Z" fill="white"/>
</mask>
<g mask="url(#mask0_473_93)">
<path d="M62.9999 21.0001H50.9999C50.8599 21.0001 50.7199 20.9701 50.5999 20.9101C50.4699 20.8601 50.3599 20.7801 50.2599 20.6801C50.1699 20.5801 50.0999 20.4601 50.0499 20.3301C49.9999 20.2001 49.9899 20.0701 49.9999 19.9301C50.0199 19.6701 50.1399 19.4301 50.3299 19.2601C50.5199 19.0901 50.7699 18.9901 51.0299 19.0001H61.9999C62.1299 19.0001 62.2699 18.9701 62.3899 18.9101C62.5199 18.8601 62.6299 18.7801 62.7299 18.6801C62.8199 18.5801 62.8899 18.4601 62.9399 18.3301C62.9899 18.2001 62.9999 18.0701 62.9999 17.9301C62.9699 17.6701 62.8499 17.4301 62.6599 17.2601C62.4699 17.0901 62.2199 16.9901 61.9599 17.0001H59.5299C59.4599 17.0001 59.3899 16.9801 59.3199 16.9501C59.2599 16.9201 59.1999 16.8801 59.1499 16.8201C59.0999 16.7701 59.0699 16.7101 59.0499 16.6401C59.0299 16.5701 59.0199 16.4901 59.0299 16.4201C59.1399 15.6601 59.4699 14.9501 59.9699 14.3701C60.4699 13.7901 61.1299 13.3701 61.8599 13.1601C62.5999 12.9401 63.3799 12.9401 64.1199 13.1601C64.8499 13.3701 65.5099 13.8001 66.0099 14.3701C66.5099 14.9501 66.8399 15.6701 66.9499 16.4201C67.0599 17.1801 66.9499 17.9601 66.6299 18.6501C66.3099 19.3501 65.7999 19.9401 65.1599 20.3601C64.5099 20.7701 63.7599 20.9901 62.9999 21.0001ZM77.9899 20.7101C77.9099 19.7201 77.4799 18.8001 76.7699 18.1201C76.0599 17.4301 75.1299 17.0301 74.1399 17.0001C73.1499 16.9601 72.1899 17.2901 71.4299 17.9201C70.6699 18.5601 70.1799 19.4501 70.0399 20.4201C70.0299 20.4901 70.0299 20.5701 70.0499 20.6401C70.0699 20.7101 70.1099 20.7701 70.1599 20.8201C70.1999 20.8801 70.2599 20.9201 70.3299 20.9501C70.3899 20.9801 70.4599 21.0001 70.5399 21.0001H72.9699C73.2299 20.9901 73.4699 21.0901 73.6599 21.2601C73.8599 21.4301 73.9799 21.6701 73.9999 21.9301C74.0099 22.0701 73.9899 22.2001 73.9399 22.3301C73.8999 22.4601 73.8199 22.5801 73.7299 22.6801C73.6399 22.7801 73.5199 22.8601 73.3999 22.9101C73.2699 22.9701 73.1399 23.0001 72.9999 23.0001H52.0299C51.7699 22.9901 51.5199 23.0901 51.3299 23.2601C51.1399 23.4301 51.0199 23.6701 50.9999 23.9301C50.9899 24.0701 50.9999 24.2001 51.0499 24.3301C51.0999 24.4601 51.1699 24.5801 51.2599 24.6801C51.3599 24.7801 51.4699 24.8601 51.5999 24.9101C51.7199 24.9701 51.8599 25.0001 51.9999 25.0001H73.9999C74.5399 25.0001 75.0899 24.8801 75.5899 24.6601C76.0999 24.4401 76.5499 24.1201 76.9199 23.7201C77.2999 23.3201 77.5799 22.8401 77.7699 22.3301C77.9499 21.8101 78.0199 21.2601 77.9899 20.7101ZM66.9999 27.0001H53.0299C52.7699 26.9901 52.5199 27.0901 52.3299 27.2601C52.1399 27.4301 52.0199 27.6701 51.9999 27.9301C51.9899 28.0701 51.9999 28.2001 52.0499 28.3301C52.0999 28.4601 52.1699 28.5801 52.2599 28.6801C52.3599 28.7801 52.4699 28.8601 52.5999 28.9101C52.7199 28.9701 52.8599 29.0001 52.9999 29.0001H65.9599C66.2199 28.9901 66.4699 29.0901 66.6599 29.2601C66.8499 29.4301 66.9699 29.6701 66.9899 29.9301C66.9999 30.0701 66.9799 30.2001 66.9399 30.3301C66.8899 30.4601 66.8199 30.5801 66.7199 30.6801C66.6299 30.7801 66.5199 30.8601 66.3899 30.9101C66.2699 30.9701 66.1299 31.0001 65.9899 31.0001H63.5299C63.4599 30.9901 63.3899 31.0101 63.3199 31.0401C63.2599 31.0701 63.1999 31.1101 63.1499 31.1701C63.0999 31.2201 63.0699 31.2801 63.0499 31.3501C63.0299 31.4201 63.0199 31.5001 63.0299 31.5701C63.1399 32.3301 63.4699 33.0401 63.9699 33.6201C64.4699 34.2001 65.1299 34.6201 65.8599 34.8301C66.5999 35.0501 67.3799 35.0501 68.1199 34.8301C68.8499 34.6201 69.5099 34.1901 70.0099 33.6201C70.5099 33.0401 70.8399 32.3201 70.9499 31.5701C71.0599 30.8101 70.9499 30.0301 70.6299 29.3401C70.3099 28.6401 69.7999 28.0501 69.1599 27.6301C68.5099 27.2201 67.7599 27.0001 66.9999 27.0001Z" fill="white"/>
</g>
</g>
<defs>
<clipPath id="clip0_473_93">
<rect width="88" height="48" fill="white"/>
</clipPath>
</defs>
</svg>
