<svg width="88" height="48" viewBox="0 0 88 48" fill="none" xmlns="http://www.w3.org/2000/svg">
<g clip-path="url(#clip0_473_80)">
<path d="M24 48C37.2548 48 48 37.2548 48 24C48 10.7452 37.2548 0 24 0C10.7452 0 0 10.7452 0 24C0 37.2548 10.7452 48 24 48Z" fill="#1C2C7C" fill-opacity="0.2"/>
<path d="M24 47.5C36.9787 47.5 47.5 36.9787 47.5 24C47.5 11.0213 36.9787 0.5 24 0.5C11.0213 0.5 0.5 11.0213 0.5 24C0.5 36.9787 11.0213 47.5 24 47.5Z" stroke="white"/>
<path d="M44 48C57.2548 48 68 37.2548 68 24C68 10.7452 57.2548 0 44 0C30.7452 0 20 10.7452 20 24C20 37.2548 30.7452 48 44 48Z" fill="#2A41B1"/>
<path d="M44 47.5C56.9787 47.5 67.5 36.9787 67.5 24C67.5 11.0213 56.9787 0.5 44 0.5C31.0213 0.5 20.5 11.0213 20.5 24C20.5 36.9787 31.0213 47.5 44 47.5Z" stroke="white"/>
<path d="M64 48C77.2548 48 88 37.2548 88 24C88 10.7452 77.2548 0 64 0C50.7452 0 40 10.7452 40 24C40 37.2548 50.7452 48 64 48Z" fill="#1C2C7C"/>
<path d="M64 47.5C76.9787 47.5 87.5 36.9787 87.5 24C87.5 11.0213 76.9787 0.5 64 0.5C51.0213 0.5 40.5 11.0213 40.5 24C40.5 36.9787 51.0213 47.5 64 47.5Z" stroke="white"/>
<mask id="mask0_473_80" style="mask-type:luminance" maskUnits="userSpaceOnUse" x="48" y="8" width="32" height="32">
<path d="M79.5 8.5H48.5V39.5H79.5V8.5Z" fill="white"/>
</mask>
<g mask="url(#mask0_473_80)">
<path d="M71 20.1V19C71 17.93 70.57 16.92 69.82 16.17C69.07 15.42 68.06 15 67 15H65V12H69C69.26 12 69.51 12.1 69.7 12.29C69.89 12.48 70 12.73 70 13C70 13.26 70.1 13.51 70.29 13.7C70.48 13.89 70.73 14 71 14C71.26 14 71.51 13.89 71.7 13.7C71.89 13.51 72 13.26 72 13C72 12.2 71.68 11.44 71.12 10.87C70.55 10.31 69.79 10 69 10H61C60.73 10 60.48 10.1 60.29 10.29C60.1 10.48 60 10.73 60 11C60 11.26 60.1 11.51 60.29 11.7C60.48 11.89 60.73 12 61 12H63V15H61C59.93 15 58.92 15.42 58.17 16.17C57.42 16.92 57 17.93 57 19V20.1C55.87 20.33 54.85 20.94 54.12 21.83C53.4 22.73 53 23.84 53 25V35C53 35.53 53.21 36.03 53.58 36.41C53.96 36.78 54.46 37 55 37H73C73.53 37 74.03 36.78 74.41 36.41C74.78 36.03 75 35.53 75 35V25C74.99 23.84 74.59 22.73 73.87 21.83C73.14 20.94 72.12 20.33 71 20.1ZM61 17H67C67.53 17 68.03 17.21 68.41 17.58C68.78 17.96 69 18.46 69 19V20H59V19C59 18.46 59.21 17.96 59.58 17.58C59.96 17.21 60.46 17 61 17Z" fill="white"/>
</g>
</g>
<defs>
<clipPath id="clip0_473_80">
<rect width="88" height="48" fill="white"/>
</clipPath>
</defs>
</svg>
