<svg width="88" height="48" viewBox="0 0 88 48" fill="none" xmlns="http://www.w3.org/2000/svg">
<g clip-path="url(#clip0_473_63)">
<path d="M24 48C37.2548 48 48 37.2548 48 24C48 10.7452 37.2548 0 24 0C10.7452 0 0 10.7452 0 24C0 37.2548 10.7452 48 24 48Z" fill="#1C2C7C" fill-opacity="0.2"/>
<path d="M24 47.5C36.9787 47.5 47.5 36.9787 47.5 24C47.5 11.0213 36.9787 0.5 24 0.5C11.0213 0.5 0.5 11.0213 0.5 24C0.5 36.9787 11.0213 47.5 24 47.5Z" stroke="white"/>
<path d="M44 48C57.2548 48 68 37.2548 68 24C68 10.7452 57.2548 0 44 0C30.7452 0 20 10.7452 20 24C20 37.2548 30.7452 48 44 48Z" fill="#2A41B1"/>
<path d="M44 47.5C56.9787 47.5 67.5 36.9787 67.5 24C67.5 11.0213 56.9787 0.5 44 0.5C31.0213 0.5 20.5 11.0213 20.5 24C20.5 36.9787 31.0213 47.5 44 47.5Z" stroke="white"/>
<path d="M64 48C77.2548 48 88 37.2548 88 24C88 10.7452 77.2548 0 64 0C50.7452 0 40 10.7452 40 24C40 37.2548 50.7452 48 64 48Z" fill="#1C2C7C"/>
<path d="M64 47.5C76.9787 47.5 87.5 36.9787 87.5 24C87.5 11.0213 76.9787 0.5 64 0.5C51.0213 0.5 40.5 11.0213 40.5 24C40.5 36.9787 51.0213 47.5 64 47.5Z" stroke="white"/>
<mask id="mask0_473_63" style="mask-type:luminance" maskUnits="userSpaceOnUse" x="48" y="8" width="32" height="32">
<path d="M79.5 8.5H48.5V39.5H79.5V8.5Z" fill="white"/>
</mask>
<g mask="url(#mask0_473_63)">
<path d="M77.22 15.25L73 14.55C72.92 14.53 72.84 14.61 72.84 14.71C72.89 14.94 72.92 15.2 72.92 15.43C72.92 15.68 72.89 15.91 72.84 16.14C72.82 16.22 72.89 16.3 73 16.3L77.22 15.6C77.35 15.55 77.35 15.27 77.22 15.25Z" fill="white"/>
<path d="M68.9501 12H64.2901C63.9601 12 63.6801 12.28 63.6801 12.61V18.19C63.6801 18.52 63.9601 18.8 64.2901 18.8H68.9501C70.7701 18.8 72.2301 17.35 72.2301 15.53V15.25C72.2301 13.48 70.7401 12 68.9501 12Z" fill="white"/>
<path d="M68.0001 26.64C67.8201 26.64 67.3901 26.59 67.3901 26.18L66.8501 20.06C66.8001 19.91 66.6701 19.8 66.4901 19.8H65.5001C65.3201 19.8 65.1901 19.93 65.1601 20.08L64.5001 26.18C64.5001 26.48 64.1601 26.64 64.0101 26.64C63.8301 26.64 63.6801 26.7701 63.6801 26.9501V33.6501C63.6801 34.8301 64.7301 35.8 66.0101 35.8C67.2901 35.8 68.34 34.8301 68.34 33.6501V26.9501C68.34 26.7701 68.1801 26.64 68.0001 26.64Z" fill="white"/>
<path d="M59.61 27.59C59.58 27.46 59.48 27.38 59.38 27.38H58.81C58.68 27.38 58.56 27.28 58.56 27.12V19.29C58.56 19.19 58.45 19.09 58.35 19.11C58.05 19.16 57.71 19.16 57.41 19.11C57.3 19.09 57.2 19.19 57.2 19.29V27.12C57.2 27.25 57.1 27.38 56.94 27.38H56.38C56.25 27.38 56.15 27.48 56.15 27.59L55.54 32.68C55.33 34.29 56.38 35.8 57.89 35.8C59.27 35.8 60.27 34.52 60.27 33.09C60.27 32.96 60.27 32.83 60.25 32.71L59.61 27.59Z" fill="white"/>
<path d="M59.99 12.7901C58.63 11.6101 56.58 11.7601 55.43 13.1501C54.28 14.5001 54.43 16.5501 55.79 17.7301C57.15 18.8801 59.2 18.7301 60.37 17.3701C61.52 15.9901 61.35 13.9401 59.99 12.7901ZM60.04 16.2401C59.99 16.3501 59.83 16.3201 59.83 16.2201C59.71 15.3701 59.2 14.4501 58.33 13.7401C58.02 13.4801 57.71 13.2701 57.38 13.1001C57.3 13.0401 57.3 12.9201 57.4 12.8901C58.09 12.7101 58.86 12.8901 59.45 13.3801C60.32 14.1201 60.53 15.3001 60.04 16.2401Z" fill="white"/>
</g>
</g>
<defs>
<clipPath id="clip0_473_63">
<rect width="88" height="48" fill="white"/>
</clipPath>
</defs>
</svg>
