<svg width="20" height="20" viewBox="0 0 20 20" fill="none" xmlns="http://www.w3.org/2000/svg">
<g clip-path="url(#clip0_478_107)">
<path d="M14.03 6.96C14.1 7.03 14.15 7.12 14.19 7.21C14.23 7.3 14.25 7.4 14.25 7.5C14.25 7.59 14.23 7.69 14.19 7.78C14.15 7.87 14.1 7.96 14.03 8.03L8.78005 13.28C8.71005 13.35 8.62005 13.4 8.53005 13.44C8.44005 13.48 8.34005 13.5 8.25005 13.5C8.15005 13.5 8.05005 13.48 7.96005 13.44C7.87005 13.4 7.78005 13.35 7.71005 13.28L5.46005 11.03C5.32005 10.88 5.24005 10.69 5.24005 10.5C5.24005 10.3 5.32005 10.11 5.46005 9.96C5.61005 9.82 5.80005 9.74 6.00005 9.74C6.19005 9.74 6.38005 9.82 6.53005 9.96L8.25005 11.68L12.96 6.96C13.03 6.89 13.12 6.84 13.21 6.8C13.3 6.76 13.4 6.74 13.5 6.74C13.59 6.74 13.69 6.76 13.78 6.8C13.87 6.84 13.96 6.89 14.03 6.96ZM19.5 9.75C19.5 11.67 18.92 13.56 17.85 15.16C16.78 16.77 15.26 18.01 13.48 18.75C11.69 19.49 9.73005 19.68 7.84005 19.31C5.95005 18.93 4.21005 18 2.85005 16.64C1.49005 15.28 0.560048 13.54 0.180048 11.65C-0.189952 9.76 4.82202e-05 7.8 0.740048 6.01C1.48005 4.23 2.72005 2.71 4.33005 1.64C5.93005 0.57 7.82005 0 9.75005 0C12.33 0 14.81 1.03 16.64 2.85C18.46 4.68 19.49 7.16 19.5 9.75ZM18 9.75C18 8.11 17.51 6.52 16.6 5.16C15.7 3.8 14.41 2.75 12.9 2.12C11.39 1.5 9.74005 1.34 8.14005 1.65C6.54005 1.97 5.07005 2.76 3.91005 3.91C2.76005 5.07 1.97005 6.54 1.65005 8.14C1.34005 9.74 1.50005 11.39 2.12005 12.9C2.75005 14.41 3.80005 15.7 5.16005 16.6C6.52005 17.51 8.11005 18 9.75005 18C11.93 17.99 14.03 17.12 15.58 15.58C17.12 14.03 17.99 11.93 18 9.75Z" fill="#1C2C7C"/>
</g>
<defs>
<clipPath id="clip0_478_107">
<rect width="19.5" height="19.5" fill="white"/>
</clipPath>
</defs>
</svg>
